<svg class="svg-icon" style="width: 1em; height: 1em;vertical-align: middle;fill: currentColor;overflow: hidden;" viewBox="0 0 1024 1024" version="1.1" xmlns="http://www.w3.org/2000/svg"><path d="M510.72 0.256A511.786667 511.786667 0 0 0 1.450667 460.842667H357.12v-76.8a25.6 25.6 0 0 1 25.6-25.557334h255.872c14.250667 0 25.6 11.434667 25.6 25.6v255.872a25.6 25.6 0 0 1-25.557333 25.6h-256a25.557333 25.557333 0 0 1-25.514667-25.6V563.2H1.493333c28.288 281.258667 279.168 486.272 560.384 458.026667 281.258667-28.288 486.272-279.168 457.984-560.384A511.744 511.744 0 0 0 510.72 0.256z" fill="" /></svg>